# Blender v3.0.0 OBJ File: ''
# www.blender.org
mtllib windturbinepole.mtl
o windturbine.002
v 0.866025 0.000000 -0.500000
v 0.500000 0.000000 -0.866025
v 0.500000 22.413546 -0.866021
v 0.866025 22.413546 -0.499996
v 0.000000 0.000000 -1.000000
v 0.000000 22.413546 -0.999996
v -0.500000 0.000000 -0.866025
v -0.500000 22.413546 -0.866021
v -0.866025 0.000000 -0.500000
v -0.866025 22.413546 -0.499996
v -1.000000 0.000000 0.000000
v -1.000000 22.413546 0.000004
v -0.866025 -0.000000 0.500000
v -0.866025 22.413546 0.500004
v -0.500000 -0.000000 0.866025
v -0.500000 22.413546 0.866029
v 0.000000 -0.000000 1.000000
v 0.000000 22.413546 1.000004
v 0.500000 -0.000000 0.866025
v 0.500000 22.413546 0.866029
v 0.866025 -0.000000 0.500000
v 0.866025 22.413546 0.500004
v 1.000000 0.000000 0.000000
v 1.000000 22.413546 0.000004
v 0.000000 0.000000 0.000000
v 0.000000 22.413546 0.000004
v 0.602154 24.071877 1.913780
v 0.000000 24.321297 1.913780
v -0.602154 24.071877 1.913780
v -0.851575 23.469723 1.913780
v -0.602154 22.867569 1.913780
v 0.000000 22.618149 1.913780
v 0.602154 22.867569 1.913780
v 0.851575 23.469723 1.913780
v -1.122893 22.569103 1.951221
v -0.943387 22.525646 1.951221
v -0.943387 22.756037 2.021396
v -1.148579 22.756037 1.951221
v -1.143965 24.494865 1.480026
v -0.978388 24.538233 1.480026
v -0.978388 24.538233 -1.480018
v -1.143965 24.494865 -1.480018
v -0.726558 23.254276 -3.554659
v -0.596759 23.254276 -3.651493
v -0.596759 23.117271 -3.554659
v -0.700872 23.160728 -3.554659
v -1.165507 22.397835 -1.480018
v -0.978388 22.354378 -1.480018
v -0.978388 22.354378 1.480026
v -1.165507 22.397835 1.480026
v 1.154739 22.394703 1.480026
v 1.154739 22.394703 -1.480018
v 1.191192 22.627628 -1.480018
v 1.191192 22.627628 1.480026
v -1.191192 22.627628 1.480026
v -1.191192 22.627628 -1.480018
v -0.596759 24.212234 -3.554659
v -0.679331 24.168867 -3.554659
v 0.690104 23.157597 -3.554659
v 0.726558 23.254276 -3.554659
v 0.591078 23.117271 -3.554659
v 0.969072 22.354378 -1.480018
v -0.943387 24.366964 1.951221
v -1.101352 24.323597 1.951221
v 1.148579 22.756037 1.951221
v 1.112125 22.565971 1.951221
v 0.934405 24.366964 1.951221
v 0.969072 24.538233 1.480026
v 0.969072 24.538233 -1.480018
v 0.591078 24.212234 -3.554659
v 0.591078 23.254276 -3.651493
v 0.969072 22.354378 1.480026
v 0.934405 22.525646 1.951221
v 0.934405 22.756037 2.021396
v 1.133592 24.487906 1.480026
v 1.133592 24.487906 -1.480018
v 0.668958 24.161907 -3.554659
v 1.090979 24.316637 1.951221
v -1.148579 24.171776 1.951221
v -0.943387 24.171776 2.021396
v -1.191192 24.306732 1.480026
v -1.191192 24.306732 -1.480018
v -0.726558 24.096163 -3.554659
v -0.596759 24.096163 -3.651493
v 0.591078 24.096163 -3.651493
v 0.726558 24.096163 -3.554659
v 1.191192 24.306732 -1.480018
v 1.191192 24.306732 1.480026
v 1.148579 24.171776 1.951221
v 0.934405 24.171776 2.021396
vt 0.375000 0.312500
vt 0.395833 0.312500
vt 0.395833 0.688440
vt 0.375000 0.688440
vt 0.416667 0.312500
vt 0.416667 0.688440
vt 0.437500 0.312500
vt 0.437500 0.688440
vt 0.458333 0.312500
vt 0.458333 0.688440
vt 0.479167 0.312500
vt 0.479167 0.688440
vt 0.500000 0.312500
vt 0.500000 0.688440
vt 0.520833 0.312500
vt 0.520833 0.688440
vt 0.541667 0.312500
vt 0.541667 0.688440
vt 0.562500 0.312500
vt 0.562500 0.688440
vt 0.583333 0.312500
vt 0.583333 0.688440
vt 0.604167 0.312500
vt 0.604167 0.688440
vt 0.625000 0.312500
vt 0.625000 0.688440
vt 0.578125 0.020934
vt 0.635316 0.078125
vt 0.500000 0.150000
vt 0.500000 0.000000
vt 0.421875 0.020934
vt 0.364684 0.078125
vt 0.343750 0.156250
vt 0.364684 0.234375
vt 0.421875 0.291566
vt 0.500000 0.312500
vt 0.578125 0.291566
vt 0.635316 0.234375
vt 0.656250 0.156250
vt 0.635316 0.921875
vt 0.578125 0.979066
vt 0.500000 0.837500
vt 0.500000 1.000000
vt 0.421875 0.979066
vt 0.364684 0.921875
vt 0.343750 0.843750
vt 0.364684 0.765625
vt 0.421875 0.708434
vt 0.500000 0.687500
vt 0.578125 0.708434
vt 0.635316 0.765625
vt 0.656250 0.843750
vt 0.375000 0.000000
vt 0.395043 0.000000
vt 0.395043 0.031281
vt 0.375000 0.031281
vt 0.375000 0.250000
vt 0.395043 0.250000
vt 0.395043 0.500000
vt 0.375000 0.500000
vt 0.375000 0.718719
vt 0.395043 0.718719
vt 0.395043 0.750000
vt 0.375000 0.750000
vt 0.375000 0.750000
vt 0.395043 0.750000
vt 0.395043 1.000000
vt 0.375000 1.000000
vt 0.625000 0.000000
vt 0.875000 0.000000
vt 0.875000 0.031281
vt 0.625000 0.031281
vt 0.125000 0.000000
vt 0.375000 0.000000
vt 0.375000 0.031281
vt 0.125000 0.031281
vt 0.395043 0.500000
vt 0.375000 0.500000
vt 0.375000 0.718719
vt 0.625000 0.718719
vt 0.625000 0.750000
vt 0.625000 0.750000
vt 0.625000 0.718719
vt 0.599304 0.750000
vt 0.599304 0.750000
vt 0.395043 0.000000
vt 0.395043 0.250000
vt 0.375000 0.250000
vt 0.625000 0.031281
vt 0.625000 0.000000
vt 0.599304 0.250000
vt 0.599304 0.250000
vt 0.599304 0.500000
vt 0.599304 0.500000
vt 0.599304 0.718719
vt 0.599304 1.000000
vt 0.599304 0.000000
vt 0.599304 0.000000
vt 0.599304 0.031281
vt 0.625000 0.250000
vt 0.625000 0.500000
vt 0.625000 0.500000
vt 0.625000 1.000000
vt 0.625000 0.250000
vt 0.375000 0.223499
vt 0.395043 0.223499
vt 0.375000 0.223499
vt 0.125000 0.223499
vt 0.125000 0.250000
vt 0.375000 0.526501
vt 0.375000 0.526501
vt 0.395043 0.526501
vt 0.599304 0.526501
vt 0.625000 0.526501
vt 0.625000 0.526501
vt 0.625000 0.223499
vt 0.875000 0.223499
vt 0.875000 0.250000
vt 0.625000 0.223499
vt 0.599304 0.223499
vn 0.7071 0.0000 -0.7071
vn 0.2588 0.0000 -0.9659
vn -0.2588 0.0000 -0.9659
vn -0.7071 0.0000 -0.7071
vn -0.9659 0.0000 -0.2588
vn -0.9659 -0.0000 0.2588
vn -0.7071 -0.0000 0.7071
vn -0.2588 -0.0000 0.9659
vn 0.2588 -0.0000 0.9659
vn 0.7071 -0.0000 0.7071
vn 0.9659 -0.0000 0.2588
vn 0.9659 0.0000 -0.2588
vn -0.0000 -1.0000 -0.0000
vn 0.0000 1.0000 0.0000
vn -0.1957 -0.1743 0.9650
vn -0.2534 0.9674 0.0000
vn -0.4131 -0.3914 -0.8223
vn -0.2262 -0.9741 0.0000
vn 0.9880 -0.1546 0.0000
vn -0.9938 -0.1111 0.0000
vn -0.3225 0.9228 -0.2108
vn -0.2645 -0.8864 -0.3799
vn -0.9526 -0.1513 -0.2640
vn 0.9375 -0.2074 -0.2794
vn 0.0000 -0.9386 -0.3451
vn -0.2161 -0.9118 0.3492
vn -0.2427 0.9052 0.3490
vn -0.9844 -0.1213 0.1276
vn 0.9755 -0.1681 0.1417
vn 0.0000 0.9398 0.3416
vn 0.0000 0.9879 -0.1552
vn 0.0000 -0.5772 -0.8166
vn 0.0000 -0.9398 0.3416
vn 0.0000 -0.2914 0.9566
vn 0.2925 0.9563 0.0000
vn 0.3743 0.9014 -0.2177
vn 0.4076 -0.4031 -0.8193
vn 0.2523 -0.8905 -0.3787
vn 0.2122 -0.9772 0.0000
vn 0.2030 -0.9148 0.3492
vn 0.1911 -0.1777 0.9653
vn 0.2804 0.8945 0.3481
vn -0.2104 0.2212 0.9523
vn -0.9492 0.2637 0.1715
vn -0.9699 0.2435 0.0000
vn -0.9112 0.3300 -0.2467
vn -0.4422 0.4945 -0.7483
vn 0.0000 0.6406 -0.7679
vn 0.4512 0.5267 -0.7205
vn 0.8776 0.4094 -0.2495
vn 0.9530 0.3030 0.0000
vn 0.9257 0.3271 0.1900
vn 0.2112 0.2317 0.9496
vn 0.0000 0.3383 0.9410
vn -0.3236 -0.0000 0.9462
vn -0.9959 -0.0000 0.0901
vn -1.0000 0.0000 0.0000
vn -0.9758 -0.0000 -0.2185
vn -0.5980 0.0000 -0.8015
vn 0.0000 0.0000 -1.0000
vn 0.5815 0.0000 -0.8136
vn 0.9758 -0.0000 -0.2185
vn 1.0000 0.0000 0.0000
vn 0.9959 0.0000 0.0901
vn 0.3114 -0.0000 0.9503
vn 0.0000 -0.0000 1.0000
usemtl lambert3SG.001
s off
f 1/1/1 2/2/1 3/3/1 4/4/1
f 2/2/2 5/5/2 6/6/2 3/3/2
f 5/5/3 7/7/3 8/8/3 6/6/3
f 7/7/4 9/9/4 10/10/4 8/8/4
f 9/9/5 11/11/5 12/12/5 10/10/5
f 11/11/6 13/13/6 14/14/6 12/12/6
f 13/13/7 15/15/7 16/16/7 14/14/7
f 15/15/8 17/17/8 18/18/8 16/16/8
f 17/17/9 19/19/9 20/20/9 18/18/9
f 19/19/10 21/21/10 22/22/10 20/20/10
f 21/21/11 23/23/11 24/24/11 22/22/11
f 23/23/12 1/25/12 4/26/12 24/24/12
f 2/27/13 1/28/13 25/29/13
f 5/30/13 2/27/13 25/29/13
f 7/31/13 5/30/13 25/29/13
f 9/32/13 7/31/13 25/29/13
f 11/33/13 9/32/13 25/29/13
f 13/34/13 11/33/13 25/29/13
f 15/35/13 13/34/13 25/29/13
f 17/36/13 15/35/13 25/29/13
f 19/37/13 17/36/13 25/29/13
f 21/38/13 19/37/13 25/29/13
f 23/39/13 21/38/13 25/29/13
f 1/28/13 23/39/13 25/29/13
f 4/40/14 3/41/14 26/42/14
f 3/41/14 6/43/14 26/42/14
f 6/43/14 8/44/14 26/42/14
f 8/44/14 10/45/14 26/42/14
f 10/45/14 12/46/14 26/42/14
f 12/46/14 14/47/14 26/42/14
f 14/47/14 16/48/14 26/42/14
f 16/48/14 18/49/14 26/42/14
f 18/49/14 20/50/14 26/42/14
f 20/50/14 22/51/14 26/42/14
f 22/51/14 24/52/14 26/42/14
f 24/52/14 4/40/14 26/42/14
f 35/53/15 36/54/15 37/55/15 38/56/15
f 39/57/16 40/58/16 41/59/16 42/60/16
f 43/61/17 44/62/17 45/63/17 46/64/17
f 47/65/18 48/66/18 49/67/18 50/68/18
f 51/69/19 52/70/19 53/71/19 54/72/19
f 47/73/20 50/74/20 55/75/20 56/76/20
f 42/60/21 41/59/21 57/77/21 58/78/21
f 48/66/22 47/65/22 46/64/22 45/63/22
f 47/65/23 56/79/23 43/61/23 46/64/23
f 53/80/24 52/81/24 59/82/24 60/83/24
f 61/84/25 62/85/25 48/66/25 45/63/25
f 50/74/26 49/86/26 36/54/26 35/53/26
f 63/87/27 40/58/27 39/57/27 64/88/27
f 55/75/28 50/74/28 35/53/28 38/56/28
f 51/69/29 54/72/29 65/89/29 66/90/29
f 67/91/30 68/92/30 40/58/30 63/87/30
f 69/93/14 41/59/14 40/58/14 68/92/14
f 70/94/31 57/77/31 41/59/31 69/93/31
f 61/84/32 45/63/32 44/62/32 71/95/32
f 72/96/13 49/67/13 48/66/13 62/85/13
f 73/97/33 36/54/33 49/86/33 72/98/33
f 74/99/34 37/55/34 36/54/34 73/97/34
f 68/92/35 75/100/35 76/101/35 69/93/35
f 70/94/36 69/93/36 76/101/36 77/102/36
f 61/84/37 71/95/37 60/83/37 59/82/37
f 52/81/38 62/85/38 61/84/38 59/82/38
f 72/96/39 62/85/39 52/81/39 51/103/39
f 73/97/40 72/98/40 51/69/40 66/90/40
f 74/99/41 73/97/41 66/90/41 65/89/41
f 75/100/42 68/92/42 67/91/42 78/104/42
f 79/105/43 80/106/43 63/87/43 64/88/43
f 39/57/44 81/107/44 79/105/44 64/88/44
f 82/108/45 81/107/45 39/57/45 42/109/45
f 83/110/46 82/111/46 42/60/46 58/78/46
f 58/78/47 57/77/47 84/112/47 83/110/47
f 84/112/48 57/77/48 70/94/48 85/113/48
f 86/114/49 85/113/49 70/94/49 77/102/49
f 76/101/50 87/115/50 86/114/50 77/102/50
f 88/116/51 87/117/51 76/118/51 75/100/51
f 89/119/52 88/116/52 75/100/52 78/104/52
f 67/91/53 90/120/53 89/119/53 78/104/53
f 67/91/54 63/87/54 80/106/54 90/120/54
f 38/56/55 37/55/55 80/106/55 79/105/55
f 81/107/56 55/75/56 38/56/56 79/105/56
f 56/76/57 55/75/57 81/107/57 82/108/57
f 43/61/58 56/79/58 82/111/58 83/110/58
f 83/110/59 84/112/59 44/62/59 43/61/59
f 44/62/60 84/112/60 85/113/60 71/95/60
f 60/83/61 71/95/61 85/113/61 86/114/61
f 87/115/62 53/80/62 60/83/62 86/114/62
f 54/72/63 53/71/63 87/117/63 88/116/63
f 65/89/64 54/72/64 88/116/64 89/119/64
f 90/120/65 74/99/65 65/89/65 89/119/65
f 90/120/66 80/106/66 37/55/66 74/99/66
l 30 31
l 27 28
l 31 32
l 27 34
l 28 29
l 32 33
l 29 30
l 33 34
